<?xml version="1.0" standalone="no"?>
<!DOCTYPE svg PUBLIC "-//W3C//DTD SVG 20010904//EN"
 "http://www.w3.org/TR/2001/REC-SVG-20010904/DTD/svg10.dtd">
<svg version="1.0" xmlns="http://www.w3.org/2000/svg"
 width="512.000000pt" height="512.000000pt" viewBox="0 0 512.000000 512.000000"
 preserveAspectRatio="xMidYMid meet">

<g transform="translate(0.000000,512.000000) scale(0.100000,-0.100000)"
fill="#000000" stroke="none">
<path d="M1790 3540 c-451 -28 -578 -46 -655 -89 -107 -60 -269 -331 -421
-704 -65 -159 -70 -168 -94 -165 -24 3 -25 6 -30 98 -8 137 -22 156 -125 171
-79 11 -257 -3 -308 -25 -25 -10 -38 -25 -52 -57 -23 -58 -23 -157 0 -196 31
-54 63 -64 238 -80 248 -22 250 -22 242 -41 -23 -63 -102 -179 -172 -253 -45
-48 -86 -100 -90 -116 -10 -34 -9 -1118 1 -1156 4 -18 13 -27 26 -27 18 0 19
-11 22 -266 l3 -266 28 -24 c28 -24 30 -24 242 -24 212 0 214 0 242 24 l28 24
3 216 3 216 25 0 c19 0 24 -5 24 -25 l0 -25 1030 0 c1059 0 1056 0 1020 36 -5
5 -27 52 -49 104 l-40 95 -700 3 -701 2 0 170 0 170 679 0 678 0 7 63 c54 477
400 856 862 943 68 12 125 15 242 12 83 -3 152 -3 152 -1 0 2 -13 30 -30 63
l-30 59 43 5 c23 3 114 12 203 19 219 20 252 39 260 154 6 79 -20 151 -62 175
-61 35 -344 44 -395 13 -28 -18 -49 -91 -49 -173 l0 -83 -27 3 c-25 3 -32 16
-95 168 -131 320 -260 553 -363 656 -77 78 -128 90 -495 120 -225 18 -1102 27
-1320 14z m1200 -110 c208 -10 396 -25 472 -37 32 -5 46 -16 96 -82 52 -67 91
-125 144 -212 26 -41 96 -212 163 -394 48 -130 59 -171 48 -173 -36 -9 -465
154 -513 194 -16 14 -55 78 -90 149 -70 142 -104 178 -185 196 -81 18 -195 9
-236 -20 -44 -30 -88 -88 -133 -175 -20 -38 -48 -85 -62 -103 -45 -60 -61 -63
-291 -63 -114 0 -265 3 -334 6 l-125 7 -69 121 c-87 154 -115 189 -171 216
-39 19 -57 22 -137 18 -154 -7 -175 -25 -298 -252 -51 -94 -73 -124 -107 -148
-84 -58 -307 -148 -368 -148 -36 0 -40 6 -24 42 5 13 39 104 76 203 36 99 86
220 110 268 47 95 140 235 201 305 l38 43 145 15 c80 8 222 18 315 23 248 12
1085 13 1335 1z m-1763 -1617 c267 -203 302 -242 257 -287 -14 -14 -73 -16
-498 -16 -361 0 -485 3 -494 12 -17 17 -17 329 0 346 9 9 96 12 330 12 l317 0
88 -67z"/>
<path d="M3558 1841 c-27 -17 -48 -33 -48 -36 0 -4 15 -40 34 -81 35 -74 35
-74 74 -74 l40 0 152 -242 c84 -134 154 -244 155 -246 5 -6 80 50 78 59 -3 8
-234 332 -300 418 -28 37 -32 50 -27 78 6 30 1 38 -52 93 l-59 61 -47 -30z"/>
<path d="M4303 1769 c-87 -43 -136 -126 -135 -226 l0 -62 -88 -61 c-49 -33
-91 -64 -94 -68 -3 -5 13 -34 35 -65 30 -42 47 -57 64 -57 13 0 28 -7 33 -16
7 -13 16 -11 61 16 125 73 153 84 214 81 104 -4 190 52 232 152 15 37 21 157
7 157 -4 0 -27 -32 -52 -71 -48 -76 -72 -99 -106 -99 -22 0 -166 88 -179 110
-15 25 -6 70 23 112 15 24 39 60 51 81 l23 37 -24 0 c-13 0 -42 -9 -65 -21z"/>
<path d="M3755 1217 l-109 -62 -101 0 c-96 0 -104 -2 -151 -30 -65 -41 -114
-131 -114 -210 0 -30 4 -56 8 -59 5 -3 30 28 56 69 71 111 94 118 193 54 68
-44 103 -81 103 -108 0 -9 -22 -52 -50 -96 -27 -44 -45 -81 -40 -83 5 -2 28 2
52 8 80 22 158 133 158 227 0 18 21 39 90 89 49 37 88 70 85 74 -2 4 1 20 7
36 9 26 6 36 -28 91 -22 34 -41 62 -44 62 -3 0 -54 -28 -115 -62z"/>
<path d="M4045 1191 c-16 -10 -41 -30 -54 -44 l-24 -26 44 -49 c33 -37 55 -78
88 -163 108 -279 120 -301 177 -325 93 -39 174 16 174 117 0 57 -6 65 -175
239 -136 139 -158 169 -169 233 -8 42 -18 45 -61 18z"/>
</g>
</svg>
